<svg xmlns="http://www.w3.org/2000/svg" viewBox="0 0 200 200" fill="none" stroke="#C04C36" stroke-width="2.4" stroke-linecap="round" stroke-linejoin="round">
  <circle cx="100" cy="100" r="88"/>
  <path d="M100 30 C 62 52, 52 92, 52 118 C 52 148, 76 172, 100 176 C 124 172, 148 148, 148 118 C 148 92, 138 52, 100 30 Z"/>
  <line x1="100" y1="42" x2="100" y2="172"/>
  <path d="M100 52 C 86 58, 72 68, 62 80"/>
  <path d="M100 72 C 82 78, 66 90, 56 102"/>
  <path d="M100 92 C 80 98, 62 110, 54 122"/>
  <path d="M100 112 C 82 118, 64 130, 57 142"/>
  <path d="M100 132 C 86 138, 74 148, 67 156"/>
  <path d="M100 152 C 91 157, 84 163, 80 168"/>
  <path d="M100 52 C 114 58, 128 68, 138 80"/>
  <path d="M100 72 C 118 78, 134 90, 144 102"/>
  <path d="M100 92 C 120 98, 138 110, 146 122"/>
  <path d="M100 112 C 118 118, 136 130, 143 142"/>
  <path d="M100 132 C 114 138, 126 148, 133 156"/>
  <path d="M100 152 C 109 157, 116 163, 120 168"/>
</svg>
